# xmcd
# 
# Track frame offsets:
#     187
#     18982
#     36630
#     60772
#     81482
#     101320
#     126947
#     145892
#     167020
#     182652
#     215805
#     237970
# 
# Disc length: 3608
# 
# Revision: 10
# Processed by: cddbd v1.5.2PL0 Copyright (c) Steve Scherf et al.
# Submitted via: BonkEnc v1.0.8
# 
DISCID=a50e160c
DTITLE=B'z - FLASH BACK B'z Early Special Titles 2
DYEAR=1997
DGENRE=J-Rock
TTITLE0=OH! GIRL
TTITLE1=夜にふられても
TTITLE2=LOVING ALL NIGHT
TTITLE3=Nothing To Change
TTITLE4=BREAK THROUGH
TTITLE5=NEVER LET YOU GO
TTITLE6=君を今抱きたい
TTITLE7=STARDUST TRAIN
TTITLE8=SAVE ME!?
TTITLE9=BAD COMMUNICATION
TTITLE10=ROSY
TTITLE11=DA･KA･RA･SO･NO･TE･O･HA･NA･SHI･TE -OFF THE LOCK STYLE-
EXTD=YEAR: 1997
EXTT0=
EXTT1=
EXTT2=
EXTT3=
EXTT4=
EXTT5=
EXTT6=
EXTT7=
EXTT8=
EXTT9=
EXTT10=
EXTT11=
PLAYORDER=
